<?xml version="1.0" encoding="utf-8" standalone="yes"?> <svg width="1026" height="1026" viewBox="-1 -1 27 27" xmlns="http://www.w3.org/2000/svg" xmlns:xlink="http://www.w3.org/1999/xlink" shape-rendering="crispEdges" id="qr code"><rect id="qr background" fill-opacity="1" fill="rgb(39, 40, 42)" x="-1" y="-1" width="27" height="27"></rect><path fill-opacity="1" fill="rgb(236, 207, 99)" id="qr dark pixels" fill-rule="evenodd" d="M 8 0 L 9 0 L 9 2 L 10 2 L 10 3 L 11 3 L 11 7 L 12 7 L 12 8 L 11 8 L 11 9 L 10 9 L 10 6 L 9 6 L 9 7 L 8 7 L 8 5 L 9 5 L 9 4 L 8 4 z M 14 0 L 17 0 L 17 1 L 15 1 L 15 4 L 16 4 L 16 5 L 14 5 L 14 4 L 13 4 L 13 5 L 12 5 L 12 2 L 11 2 L 11 1 L 14 1 zM 13 2 L 14 2 L 14 3 L 13 3 z M 16 3 L 17 3 L 17 4 L 16 4 z M 16 5 L 17 5 L 17 9 L 18 9 L 18 11 L 19 11 L 19 13 L 18 13 L 18 12 L 17 12 L 17 10 L 16 10 L 16 12 L 14 12 L 14 11 L 13 11 L 13 10 L 14 10 L 14 6 L 15 6 L 15 9 L 16 9 z M 12 6 L 13 6 L 13 7 L 12 7 z M 0 8 L 2 8 L 2 9 L 4 9 L 4 8 L 7 8 L 7 9 L 5 9 L 5 11 L 3 11 L 3 13 L 4 13 L 4 12 L 7 12 L 7 13 L 6 13 L 6 14 L 0 14 L 0 11 L 1 11 L 1 10 L 0 10 z M 12 8 L 13 8 L 13 9 L 12 9 z M 19 8 L 20 8 L 20 9 L 19 9 z M 21 8 L 25 8 L 25 9 L 24 9 L 24 10 L 23 10 L 23 9 L 22 9 L 22 10 L 23 10 L 23 11 L 24 11 L 24 12 L 25 12 L 25 13 L 24 13 L 24 14 L 23 14 L 23 13 L 21 13 L 21 12 L 22 12 L 22 11 L 21 11 L 21 10 L 20 10 L 20 9 L 21 9 z M 7 9 L 8 9 L 8 10 L 7 10 z M 6 10 L 7 10 L 7 11 L 6 11 z M 9 10 L 11 10 L 11 11 L 10 11 L 10 12 L 9 12 z M 19 10 L 20 10 L 20 11 L 19 11 z M 7 11 L 8 11 L 8 12 L 7 12 z M 12 11 L 13 11 L 13 13 L 17 13 L 17 15 L 16 15 L 16 16 L 15 16 L 15 14 L 14 14 L 14 15 L 13 15 L 13 14 L 12 14 L 12 13 L 11 13 L 11 12 L 12 12 z M 7 13 L 11 13 L 11 14 L 10 14 L 10 15 L 9 15 L 9 18 L 8 18 L 8 16 L 7 16 L 7 15 L 8 15 L 8 14 L 7 14 z M 20 13 L 21 13 L 21 14 L 23 14 L 23 15 L 24 15 L 24 16 L 23 16 L 23 17 L 21 17 L 21 19 L 25 19 L 25 20 L 23 20 L 23 21 L 25 21 L 25 22 L 24 22 L 24 24 L 25 24 L 25 25 L 22 25 L 22 24 L 19 24 L 19 23 L 21 23 L 21 22 L 22 22 L 22 23 L 23 23 L 23 22 L 22 22 L 22 21 L 20 21 L 20 22 L 19 22 L 19 23 L 18 23 L 18 25 L 17 25 L 17 22 L 14 22 L 14 21 L 16 21 L 16 16 L 19 16 L 19 15 L 18 15 L 18 14 L 20 14 zM 21 15 L 22 15 L 22 16 L 21 16 z M 17 17 L 20 17 L 20 20 L 17 20 z M 6 14 L 7 14 L 7 15 L 6 15 z M 11 14 L 12 14 L 12 15 L 11 15 z M 4 15 L 6 15 L 6 16 L 4 16 z M 10 15 L 11 15 L 11 16 L 10 16 z M 0 16 L 4 16 L 4 17 L 0 17 z M 6 16 L 7 16 L 7 17 L 6 17 z M 11 16 L 13 16 L 13 17 L 12 17 L 12 18 L 13 18 L 13 20 L 12 20 L 12 19 L 11 19 L 11 18 L 10 18 L 10 17 L 11 17 z M 14 16 L 15 16 L 15 17 L 14 17 z M 13 17 L 14 17 L 14 18 L 13 18 z M 18 18 L 19 18 L 19 19 L 18 19 z M 8 19 L 10 19 L 10 20 L 9 20 L 9 21 L 8 21 z M 9 21 L 12 21 L 12 22 L 13 22 L 13 24 L 11 24 L 11 25 L 8 25 L 8 23 L 9 23 L 9 24 L 10 24 L 10 23 L 11 23 L 11 22 L 9 22 z M 15 23 L 16 23 L 16 25 L 14 25 L 14 24 L 15 24 z"></path><path id="qr squares" d="M0,0h7h0v0v7v0h0h-7h0v0v-7v0h0zM1,1h5h0v0v5v0h0h-5h0v0v-5v0h0zM2,2h3h0v0v3v0h0h-3h0v0v-3v0h0z M18,0h7h0v0v7v0h0h-7h0v0v-7v0h0zM19,1h5h0v0v5v0h0h-5h0v0v-5v0h0zM20,2h3h0v0v3v0h0h-3h0v0v-3v0h0z M0,18h7h0v0v7v0h0h-7h0v0v-7v0h0zM1,19h5h0v0v5v0h0h-5h0v0v-5v0h0zM2,20h3h0v0v3v0h0h-3h0v0v-3v0h0z" fill-rule="evenodd" fill-opacity="1" fill="rgb(236, 207, 99)"></path></svg>